# xmcd
#
# Track frame offsets:
#	150
#	17121
#	30221
#	41986
#	56128
#	71304
#	83988
#	98604
#	113006
#	130960
#	145688
#	155957
#
# Disc length: 2277 seconds
# Revision: 0
# Processed by: cddbd v1.5.2PL0 Copyright (c) Steve Scherf et al.
# Submitted via: dBpowerAMP V12.0
#
DISCID=9d08e30c
DTITLE=Don Williams - Pure: Don Williams Live
DYEAR=2007
DGENRE=Country
TTITLE0=I Believe In You
TTITLE1=Amanda
TTITLE2=The Ties That Bind
TTITLE3=You're My Best Friend
TTITLE4=Till The Rivers All Run Dry
TTITLE5=I'm Just A Country Boy
TTITLE6=Tulsa Time
TTITLE7=Lay Down Beside Me
TTITLE8=Good Ole Boys Like Me
TTITLE9=Lord, I Hope This Day Is Good
TTITLE10=Stay Young
TTITLE11=Back In My Younger Day
EXTD=
EXTT0=
EXTT1=
EXTT2=
EXTT3=
EXTT4=
EXTT5=
EXTT6=
EXTT7=
EXTT8=
EXTT9=
EXTT10=
EXTT11=
PLAYORDER=
